<?xml version="1.0" encoding="utf-8"?>
<!-- Generator: Adobe Illustrator 22.0.0, SVG Export Plug-In . SVG Version: 6.00 Build 0)  -->
<svg version="1.1" id="Layer_1" xmlns="http://www.w3.org/2000/svg" xmlns:xlink="http://www.w3.org/1999/xlink" x="0px" y="0px"
	 width="500px" height="500px" viewBox="0 0 500 500" style="enable-background:new 0 0 500 500;" xml:space="preserve">
<style type="text/css">
	.st0{fill:#4869EE;}
	.st1{fill:#FFFFFF;}
</style>
<g>
	<circle class="st0" cx="227.9" cy="250" r="208.4"/>
	<circle class="st1" cx="227.4" cy="114.9" r="34"/>
	<path class="st1" d="M309.9,124.7l-96.8,42.6c0,0-41.5,15.7-54.1,29.6c-12.7,13.8-17.7,46.5-10.4,63.4s11.1,24.6,44.9,35.7
		c33.8,11.1,36.1,12.3,36.1,12.3s-47.2,19.6-59.1,27.3c-11.9,7.7-24,15-25.3,51.8s0,31.5,0,31.5l82.5-36.1c0,0,56.8-21.5,67.2-34.2
		c0,0,16.9-11.1,15-51.5c-1.9-40.3-34.9-45.7-34.9-45.7l-47.6-14.2c0,0,38.4-16.9,50.3-23.8c11.9-6.9,29.9-18.8,32.4-44.5
		S309.9,124.7,309.9,124.7z"/>
</g>
</svg>
